<svg width="32" height="32" viewBox="0 0 32 32" fill="none" xmlns="http://www.w3.org/2000/svg">
<g id="Icon">
<g id="Group 1">
<path id="Vector" d="M17.9443 12.6739C17.7362 12.6739 17.5671 12.5051 17.5671 12.2968V11.6559C17.5671 11.4479 17.736 11.2788 17.9443 11.2788C18.1523 11.2788 18.3214 11.4476 18.3214 11.6559V12.2968C18.3214 12.5051 18.1523 12.6739 17.9443 12.6739Z" fill="#6173E5"/>
<path id="Vector_2" d="M16.3587 12.6739C16.1507 12.6739 15.9816 12.5051 15.9816 12.2968V11.6559C15.9816 11.4479 16.1505 11.2788 16.3587 11.2788C16.5668 11.2788 16.7359 11.4476 16.7359 11.6559V12.2968C16.7356 12.5051 16.567 12.6739 16.3587 12.6739Z" fill="#6173E5"/>
<path id="Vector_3" d="M14.7734 12.6739C14.5653 12.6739 14.3962 12.5051 14.3962 12.2968V11.6559C14.3962 11.4479 14.5651 11.2788 14.7734 11.2788C14.9814 11.2788 15.1505 11.4476 15.1505 11.6559V12.2968C15.1505 12.5051 14.9816 12.6739 14.7734 12.6739Z" fill="#6173E5"/>
<path id="Vector_4" d="M17.9443 15.2947C17.7362 15.2947 17.5671 15.1259 17.5671 14.9176V14.277C17.5671 14.0689 17.736 13.8998 17.9443 13.8998C18.1523 13.8998 18.3214 14.0687 18.3214 14.277V14.9176C18.3214 15.1259 18.1523 15.2947 17.9443 15.2947Z" fill="#6173E5"/>
<path id="Vector_5" d="M16.3587 15.2947C16.1507 15.2947 15.9816 15.1259 15.9816 14.9176V14.277C15.9816 14.0689 16.1505 13.8998 16.3587 13.8998C16.5668 13.8998 16.7359 14.0687 16.7359 14.277V14.9176C16.7356 15.1259 16.567 15.2947 16.3587 15.2947Z" fill="#6173E5"/>
<path id="Vector_6" d="M14.7734 15.2947C14.5653 15.2947 14.3962 15.1259 14.3962 14.9176V14.277C14.3962 14.0689 14.5651 13.8998 14.7734 13.8998C14.9814 13.8998 15.1505 14.0687 15.1505 14.277V14.9176C15.1505 15.1259 14.9816 15.2947 14.7734 15.2947Z" fill="#6173E5"/>
<path id="Vector_7" d="M17.9443 17.9156C17.7362 17.9156 17.5671 17.7467 17.5671 17.5384V16.8976C17.5671 16.6895 17.736 16.5204 17.9443 16.5204C18.1523 16.5204 18.3214 16.6893 18.3214 16.8976V17.5384C18.3214 17.7467 18.1523 17.9156 17.9443 17.9156Z" fill="#6173E5"/>
<path id="Vector_8" d="M16.3587 17.9156C16.1507 17.9156 15.9816 17.7467 15.9816 17.5384V16.8976C15.9816 16.6895 16.1505 16.5204 16.3587 16.5204C16.5668 16.5204 16.7359 16.6893 16.7359 16.8976V17.5384C16.7356 17.7467 16.567 17.9156 16.3587 17.9156Z" fill="#6173E5"/>
<path id="Vector_9" d="M14.7734 17.9156C14.5653 17.9156 14.3962 17.7467 14.3962 17.5384V16.8976C14.3962 16.6895 14.5651 16.5204 14.7734 16.5204C14.9814 16.5204 15.1505 16.6893 15.1505 16.8976V17.5384C15.1505 17.7467 14.9816 17.9156 14.7734 17.9156Z" fill="#6173E5"/>
<path id="Vector_10" d="M17.9443 20.5359C17.7362 20.5359 17.5671 20.367 17.5671 20.1587V19.5179C17.5671 19.3098 17.736 19.1407 17.9443 19.1407C18.1523 19.1407 18.3214 19.3096 18.3214 19.5179V20.1587C18.3214 20.367 18.1523 20.5359 17.9443 20.5359Z" fill="#6173E5"/>
<path id="Vector_11" d="M16.3587 20.5359C16.1507 20.5359 15.9816 20.367 15.9816 20.1587V19.5179C15.9816 19.3098 16.1505 19.1407 16.3587 19.1407C16.5668 19.1407 16.7359 19.3096 16.7359 19.5179V20.1587C16.7356 20.367 16.567 20.5359 16.3587 20.5359Z" fill="#6173E5"/>
<path id="Vector_12" d="M14.7734 20.5359C14.5653 20.5359 14.3962 20.367 14.3962 20.1587V19.5179C14.3962 19.3098 14.5651 19.1407 14.7734 19.1407C14.9814 19.1407 15.1505 19.3096 15.1505 19.5179V20.1587C15.1505 20.367 14.9816 20.5359 14.7734 20.5359Z" fill="#6173E5"/>
<path id="Vector_13" d="M17.9443 23.1566C17.7362 23.1566 17.5671 22.9878 17.5671 22.7795V22.1389C17.5671 21.9309 17.736 21.7618 17.9443 21.7618C18.1523 21.7618 18.3214 21.9306 18.3214 22.1389V22.7795C18.3214 22.9875 18.1523 23.1566 17.9443 23.1566Z" fill="#6173E5"/>
<path id="Vector_14" d="M16.3587 23.1566C16.1507 23.1566 15.9816 22.9878 15.9816 22.7795V22.1389C15.9816 21.9309 16.1505 21.7618 16.3587 21.7618C16.5668 21.7618 16.7359 21.9306 16.7359 22.1389V22.7795C16.7356 22.9875 16.567 23.1566 16.3587 23.1566Z" fill="#6173E5"/>
<path id="Vector_15" d="M14.7734 23.1566C14.5653 23.1566 14.3962 22.9878 14.3962 22.7795L14.3965 22.1389C14.3965 21.9309 14.5653 21.7618 14.7736 21.7618C14.9816 21.7618 15.1507 21.9306 15.1507 22.1389V22.7795C15.1505 22.9875 14.9816 23.1566 14.7734 23.1566Z" fill="#6173E5"/>
<path id="Vector_16" d="M4.00032 25.7648C4.00032 25.9728 4.16915 26.1419 4.37743 26.1419H27.3426C27.5506 26.1419 27.7197 25.973 27.7197 25.7648C27.7197 25.5567 27.5509 25.3876 27.3426 25.3876H26.6455V14.5601C26.6455 14.3521 26.4766 14.183 26.2684 14.183L20.1112 14.1833V6.37717C20.1112 6.24516 20.0423 6.12314 19.9298 6.05476C19.8175 5.98612 19.677 5.98192 19.5603 6.04266L12.56 9.68732C12.4351 9.75227 12.3573 9.88113 12.3573 10.0218V16.8403H5.58258C5.37457 16.8403 5.20547 17.0091 5.20547 17.2174V25.3877H4.37659C4.16858 25.3874 4 25.5563 4 25.7646L4.00032 25.7648ZM20.1113 19.8948H25.8916V25.388L20.1113 25.3877V19.8948ZM20.1113 17.2742H25.8916V19.1409L20.1113 19.1406V17.2742ZM20.1113 14.9371H25.8916V16.5205H20.1113V14.9371ZM13.1111 10.2508L19.3569 6.99879V25.3873H13.1111V10.2508ZM7.82392 22.3757C7.82392 21.593 8.44402 20.9561 9.20639 20.9561C9.96876 20.9561 10.5891 21.5928 10.5891 22.3757V25.3878H7.82392V22.3757ZM5.95968 17.5944H12.3572V25.3877H11.3434V22.3755C11.3434 21.1771 10.3851 20.202 9.20639 20.202C8.02824 20.202 7.06997 21.1768 7.06997 22.3755V25.3877H5.95968V17.5944Z" fill="#6173E5"/>
</g>
</g>
</svg>
