<svg width="32" height="32" viewBox="0 0 32 32" fill="none" xmlns="http://www.w3.org/2000/svg">
<rect width="32" height="32" rx="16" fill="white"/>
<path d="M19.0206 14.4773L18.4979 15.6136H11.0888L11.4979 14.4773H19.0206ZM18.0433 16.75L17.5206 17.8864H11.0888L11.4979 16.75H18.0433ZM20.3615 11.4091L19.8161 12.5909C19.5736 12.3712 19.3179 12.1818 19.049 12.0227C18.7801 11.8636 18.4979 11.7405 18.2024 11.6534C17.907 11.5663 17.5964 11.5227 17.2706 11.5227C16.6267 11.5227 16.0471 11.7008 15.532 12.0568C15.0168 12.4129 14.6096 12.9375 14.3104 13.6307C14.0111 14.3239 13.8615 15.1742 13.8615 16.1818C13.8615 17.1894 14.0111 18.0398 14.3104 18.733C14.6096 19.4261 15.0168 19.9508 15.532 20.3068C16.0471 20.6629 16.6267 20.8409 17.2706 20.8409C17.6039 20.8409 17.9183 20.7973 18.2138 20.7102C18.513 20.6231 18.7914 20.5038 19.049 20.3523C19.3104 20.2008 19.5509 20.0303 19.7706 19.8409L20.3388 21.0227C19.9411 21.3977 19.4751 21.6818 18.9411 21.875C18.407 22.0644 17.8501 22.1591 17.2706 22.1591C16.3388 22.1591 15.513 21.9167 14.7933 21.4318C14.0774 20.947 13.5149 20.2576 13.1058 19.3636C12.7005 18.4697 12.4979 17.4091 12.4979 16.1818C12.4979 14.9545 12.7005 13.8939 13.1058 13C13.5149 12.1061 14.0774 11.4167 14.7933 10.9318C15.513 10.447 16.3388 10.2045 17.2706 10.2045C17.8729 10.2045 18.4354 10.3087 18.9581 10.517C19.4846 10.7254 19.9524 11.0227 20.3615 11.4091Z" fill="#6173E5"/>
</svg>
