<svg width="32" height="32" viewBox="0 0 32 32" fill="none" xmlns="http://www.w3.org/2000/svg">
<g id="Icon">
<g id="Group 2">
<path id="Vector" d="M18.8744 15.7631C18.7139 15.7631 18.5648 15.719 18.4324 15.648V15.6499C18.4324 15.9024 18.3342 16.1396 18.1561 16.3173C17.978 16.4954 17.741 16.5935 17.4887 16.5935C17.3259 16.5935 17.1749 16.5483 17.0411 16.4754C17.0276 16.7065 16.9352 16.9224 16.7705 17.0874C16.5924 17.2655 16.3554 17.3636 16.1029 17.3636C15.6014 17.3636 15.1941 16.9694 15.1648 16.4753C15.0096 16.5591 14.8342 16.6031 14.6532 16.5915C14.1598 16.5591 13.7735 16.1329 13.7735 15.6208V11.3764L13.2902 12.2137C13.1061 12.534 12.7615 12.7328 12.3905 12.7328C12.2097 12.7328 12.0311 12.6854 11.873 12.5947C11.676 12.4805 11.5351 12.2973 11.4765 12.078C11.4176 11.8586 11.4481 11.6291 11.562 11.4324C11.5621 11.4324 13.1433 8.69429 13.2398 8.5261C13.2512 8.50081 13.2839 8.42746 13.3117 8.36495C13.3382 8.30526 13.361 8.24401 13.3829 8.18244C13.8597 6.83625 15.0404 6.00003 16.4643 6.00003C18.3134 6.00003 19.8178 7.6313 19.8178 9.63642L19.818 14.8193C19.818 15.0716 19.72 15.3086 19.542 15.4869C19.3639 15.665 19.1269 15.7631 18.8743 15.7631L18.8744 15.7631ZM16.4643 6.50146C15.2408 6.50146 14.2656 7.19256 13.8555 8.35013C13.8293 8.42364 13.8019 8.49714 13.77 8.56877C13.6775 8.77625 13.6775 8.77625 13.6515 8.80609L13.648 8.80311C13.5189 9.04671 13.1353 9.71094 11.9961 11.6834C11.9493 11.7643 11.9369 11.8582 11.9608 11.948C11.985 12.0379 12.043 12.1136 12.1232 12.1599C12.3723 12.303 12.7135 12.2106 12.8555 11.9633L13.8071 10.3156C13.864 10.2175 13.9789 10.1692 14.0892 10.1991C14.1988 10.2285 14.275 10.3279 14.275 10.4413V15.621C14.275 15.8654 14.4594 16.0763 14.6861 16.0912C14.8167 16.0981 14.9386 16.0543 15.0302 15.9629C15.1134 15.8796 15.1593 15.7688 15.1593 15.6502V12.2626C15.1593 12.1241 15.2716 12.0118 15.4101 12.0118C15.5487 12.0118 15.661 12.1239 15.661 12.2626L15.6608 16.4202C15.6608 16.6639 15.8592 16.8623 16.1029 16.8623C16.2214 16.8623 16.3326 16.8164 16.416 16.7332C16.4992 16.6498 16.5451 16.5386 16.5451 16.4202V12.2626C16.5451 12.1241 16.6572 12.0118 16.7959 12.0118C16.9344 12.0118 17.0468 12.1239 17.0468 12.2626L17.0466 15.6112V15.6502C17.0466 15.8938 17.245 16.0921 17.4889 16.0921C17.6072 16.0921 17.718 16.0461 17.8019 15.9626C17.8852 15.8795 17.931 15.7686 17.931 15.65V12.2624C17.931 12.1239 18.0432 12.0116 18.1819 12.0116C18.3204 12.0116 18.4327 12.1237 18.4327 12.2624L18.4324 14.8194C18.4324 15.0634 18.6308 15.2617 18.8744 15.2617C18.9929 15.2617 19.1038 15.2157 19.1871 15.1326C19.2706 15.0491 19.3163 14.9379 19.3163 14.8194L19.3165 9.63654C19.3165 7.90805 18.0371 6.50151 16.4643 6.50151L16.4643 6.50146Z" fill="#6173E5"/>
<path id="Vector_2" d="M9.01938 19.3654L12.6592 17.1819C13.098 16.9183 13.6627 17.0303 13.9441 17.4369C14.0469 17.5851 14.0993 17.7577 14.1075 17.9334C14.2432 17.8626 14.3908 17.8241 14.5411 17.8241C14.6181 17.8241 14.6954 17.8337 14.7717 17.8527C15.0163 17.9138 15.2223 18.0666 15.3519 18.2827C15.4817 18.4992 15.5195 18.7528 15.4584 18.9971C15.402 19.2231 15.2646 19.4133 15.0734 19.5438C15.2071 19.6227 15.3224 19.7303 15.4044 19.8672C15.5341 20.0837 15.572 20.3372 15.511 20.5818C15.4499 20.826 15.2971 21.032 15.0807 21.162L15.0794 21.1627C15.2107 21.2414 15.324 21.3479 15.405 21.4828C15.5349 21.6993 15.5728 21.9529 15.5117 22.1975C15.4504 22.4419 15.2976 22.6479 15.0815 22.7777L10.6372 25.4439C9.80774 25.9413 8.84884 26.113 7.93755 25.9269C7.0181 25.739 6.25663 25.2105 5.79362 24.4387C5.0609 23.2175 5.17071 21.7747 6.07964 20.6735C6.12126 20.6232 6.16226 20.572 6.19948 20.5189C6.2389 20.4629 6.28492 20.3969 6.30063 20.3743C6.39471 20.2062 7.92989 17.4403 7.92973 17.4406C8.08475 17.1609 8.37532 17.0025 8.67499 17.0027C8.81478 17.0027 8.95661 17.0371 9.08746 17.1097C9.24546 17.1979 9.37818 17.3266 9.47101 17.4816C9.66184 17.7996 9.6686 18.1977 9.48891 18.5198L9.01938 19.3654ZM9.04121 17.7394C8.99252 17.6582 8.92561 17.5935 8.84378 17.5477C8.67462 17.4541 8.46164 17.515 8.36851 17.6835C7.27001 19.6626 6.89555 20.337 6.75104 20.577L6.75433 20.5778C6.74224 20.618 6.74224 20.618 6.60999 20.8069C6.56507 20.8709 6.51623 20.9323 6.46644 20.9927C5.68486 21.9397 5.59411 23.1314 6.22346 24.1807C6.61329 24.8306 7.25758 25.2762 8.03771 25.4355C8.82633 25.5958 9.65752 25.4466 10.3789 25.0138L14.8236 22.3474C14.9251 22.2867 14.9967 22.1901 15.0253 22.0756C15.0539 21.9612 15.0361 21.8423 14.9752 21.7409C14.8498 21.532 14.5776 21.4633 14.3688 21.5891L12.1761 22.9046C12.0574 22.9759 11.9032 22.9376 11.832 22.8187C11.7607 22.6999 11.7992 22.5458 11.9179 22.4745L14.1107 21.1591L14.8228 20.7319C14.9243 20.6709 14.9961 20.5743 15.0247 20.4602C15.0532 20.3457 15.0355 20.2266 14.9746 20.1253C14.8491 19.9162 14.5769 19.8482 14.3681 19.9736L11.4632 21.7162C11.3442 21.7877 11.1904 21.749 11.1191 21.6303C11.0478 21.5116 11.0864 21.3575 11.205 21.2862L14.7702 19.1474C14.8717 19.0865 14.9433 18.99 14.9719 18.8756C15.0005 18.7612 14.9827 18.6423 14.9219 18.5408C14.8612 18.4395 14.7646 18.3679 14.6501 18.3393C14.5349 18.3107 14.4165 18.3285 14.3154 18.3891L13.6554 18.7851C13.6552 18.7851 13.6552 18.7852 13.6551 18.7852H13.6549L10.7501 20.5279C10.6311 20.5995 10.4772 20.5609 10.406 20.442C10.3347 20.3232 10.3733 20.1691 10.4919 20.0978L13.3968 18.3552C13.4983 18.2943 13.5701 18.1977 13.5987 18.0835C13.6301 17.9581 13.6062 17.83 13.5318 17.7225C13.4027 17.5358 13.1265 17.4862 12.9172 17.612L8.47572 20.2764C8.3785 20.3345 8.25395 20.3204 8.17243 20.2417C8.09075 20.1629 8.07238 20.039 8.12735 19.9398L9.0509 18.2759C9.14357 18.1096 9.13996 17.9041 9.04116 17.7395L9.04121 17.7394Z" fill="#6173E5"/>
<path id="Vector_3" d="M26.4121 24.4385C25.9492 25.2105 25.1879 25.7388 24.2683 25.9267C23.3569 26.1125 22.3983 25.9412 21.5687 25.4437L17.124 22.7774C16.9077 22.6477 16.7547 22.4416 16.6935 22.1969C16.6327 21.9526 16.6707 21.699 16.8003 21.4828C16.8812 21.3478 16.9946 21.2413 17.126 21.1626L17.1248 21.1618C16.9085 21.0321 16.7555 20.826 16.6946 20.5816C16.6333 20.3372 16.6713 20.0834 16.8011 19.867C16.8846 19.728 16.9991 19.6193 17.1298 19.5421C16.9401 19.4116 16.8034 19.222 16.7472 18.9971C16.686 18.7526 16.724 18.4989 16.8537 18.2828C16.9833 18.0665 17.1895 17.9137 17.4339 17.8526C17.5102 17.8334 17.5877 17.824 17.6643 17.824C17.8148 17.8241 17.9624 17.8623 18.0981 17.9333C18.1065 17.7576 18.1588 17.5849 18.2615 17.4368C18.5431 17.0305 19.1073 16.918 19.5468 17.1817L23.1864 19.3649L22.7173 18.5199C22.5373 18.1973 22.5439 17.7993 22.7347 17.4811C22.8277 17.3262 22.9606 17.1976 23.1194 17.1085C23.2499 17.0363 23.3913 17.002 23.5307 17.002C23.8302 17.0022 24.1211 17.1602 24.276 17.44C24.8157 18.4124 25.8341 20.2462 25.9057 20.3743C25.9209 20.3964 25.9669 20.4624 26.0064 20.5185C26.0439 20.5717 26.0844 20.6226 26.1264 20.6732C27.0352 21.7748 27.1448 23.2174 26.4121 24.4385L26.4121 24.4385ZM25.7394 20.9928C25.6894 20.9323 25.6404 20.8706 25.5958 20.807C25.4601 20.6144 25.4567 20.6094 25.4465 20.559C25.2878 20.2965 24.9008 19.5998 23.837 17.6833C23.7437 17.5151 23.5317 17.4536 23.3629 17.5469C23.2798 17.5934 23.213 17.6583 23.1643 17.7395C23.0657 17.9039 23.0619 18.1094 23.1551 18.2762L24.0783 19.9397C24.1334 20.0389 24.115 20.1627 24.0335 20.2416C23.9522 20.3206 23.8278 20.3344 23.7301 20.2763L19.2886 17.6118C19.0793 17.4863 18.8033 17.5355 18.6739 17.7224C18.5994 17.8298 18.5757 17.958 18.6068 18.0832C18.6354 18.1975 18.7072 18.2939 18.8088 18.3549C18.8091 18.355 18.8093 18.3553 18.8096 18.3555L21.7136 20.0977C21.8323 20.169 21.8708 20.3229 21.7995 20.4418C21.7282 20.5604 21.5744 20.5992 21.4554 20.5277L17.8901 18.389C17.789 18.3283 17.6699 18.3104 17.5556 18.3392C17.4409 18.3678 17.3445 18.4394 17.2837 18.541C17.2228 18.6423 17.2052 18.7612 17.2334 18.8756C17.262 18.9899 17.3338 19.0865 17.4353 19.1474L18.129 19.5635L21.0003 21.2862C21.1191 21.3575 21.1576 21.5115 21.0862 21.6303C21.0149 21.7489 20.8612 21.7876 20.7421 21.7163L17.8375 19.9736C17.6286 19.848 17.3566 19.9161 17.2309 20.1253C17.17 20.2268 17.1524 20.3457 17.1807 20.46C17.2093 20.5744 17.281 20.6708 17.3827 20.7319L18.0948 21.1591L20.2872 22.4746C20.406 22.5459 20.4445 22.6998 20.3732 22.8187C20.3019 22.9373 20.1481 22.9762 20.029 22.9046L17.8366 21.5892C17.7354 21.5286 17.6168 21.5107 17.5019 21.5394C17.3875 21.568 17.2908 21.6396 17.23 21.7409C17.1692 21.8424 17.1515 21.9614 17.1797 22.0756C17.2083 22.19 17.2801 22.2864 17.3817 22.3475L21.8264 25.0138C22.5476 25.4465 23.3794 25.5964 24.1676 25.4355C24.9476 25.2763 25.5919 24.8307 25.9817 24.1807C26.6117 23.1312 26.5211 21.9394 25.7397 20.9928L25.7394 20.9928Z" fill="#6173E5"/>
</g>
</g>
</svg>
