<svg width="32" height="32" viewBox="0 0 32 32" fill="none" xmlns="http://www.w3.org/2000/svg">
<path d="M15.9933 6.66669C13.6125 6.66669 11.6743 8.62261 11.6743 11.0136C11.6743 12.5261 12.451 13.8617 13.6238 14.6401C12.2073 15.1138 10.9815 15.999 10.0825 17.1571C9.58546 16.7748 9.03008 16.4674 8.43136 16.247C9.33927 15.573 9.93257 14.4903 9.93257 13.2733C9.93257 11.2455 8.29252 9.58548 6.27698 9.58548C4.26144 9.58548 2.62138 11.2455 2.62138 13.2733C2.62138 14.4909 3.21518 15.5742 4.12386 16.2482C1.71814 17.136 0 19.4602 0 22.1955V24.117C0.000246231 24.2635 0.0588378 24.4038 0.162726 24.5069C0.266613 24.6103 0.407186 24.6679 0.553664 24.6674H8.98364C9.00407 24.6697 9.02451 24.6709 9.04494 24.6706H22.9422C22.9626 24.6709 22.9833 24.6697 23.0035 24.6674H31.4341C31.7371 24.6662 31.9826 24.4203 31.9833 24.117V22.1955C31.9833 19.4602 30.2681 17.136 27.8637 16.248C28.7723 15.5742 29.3662 14.4907 29.3662 13.2731C29.3662 11.2453 27.7261 9.58523 25.7106 9.58523C23.6951 9.58523 22.055 11.2453 22.055 13.2731C22.055 14.49 22.6485 15.5729 23.5564 16.2468C22.9565 16.4676 22.4008 16.7761 21.9031 17.1593C21.0045 16.0005 19.7805 15.1141 18.3639 14.6401C19.5365 13.8617 20.3135 12.5261 20.3135 11.0136C20.3135 8.62261 18.3743 6.66669 15.9935 6.66669H15.9933ZM15.9933 7.76959C17.774 7.76959 19.2095 9.21471 19.2095 11.0136C19.2095 12.7984 17.7963 14.2295 16.0354 14.2524C16.0214 14.2524 16.0076 14.2504 15.9933 14.2504C15.979 14.2504 15.9655 14.2524 15.9512 14.2524C14.1903 14.2298 12.7781 12.7985 12.7781 11.0136C12.7781 9.21446 14.2124 7.76959 15.9931 7.76959H15.9933ZM6.27704 10.6883C7.68989 10.6883 8.82973 11.835 8.82973 13.2733C8.82973 14.7019 7.70464 15.8437 6.30509 15.8592C6.29573 15.8592 6.28662 15.8582 6.27702 15.8582C6.26767 15.8582 6.25856 15.8592 6.24896 15.8592C4.8494 15.8437 3.72431 14.7016 3.72431 13.2733C3.72431 11.8351 4.86415 10.6883 6.277 10.6883H6.27704ZM25.7102 10.6883C27.1231 10.6883 28.2629 11.835 28.2629 13.2733C28.2629 14.7019 27.1378 15.8437 25.7383 15.8592C25.7289 15.8592 25.7198 15.8582 25.7102 15.8582C25.7009 15.8582 25.6917 15.8592 25.6821 15.8592C24.2826 15.8437 23.1575 14.7016 23.1575 13.2733C23.1575 11.8351 24.2973 10.6883 25.7102 10.6883H25.7102ZM15.9511 15.3552C15.9651 15.3555 15.9789 15.3572 15.9932 15.3572C16.0072 15.3572 16.021 15.3552 16.0353 15.3552C19.5668 15.3779 22.3931 18.2285 22.3931 21.7968L22.3928 23.5674H9.59408V21.7968C9.59408 18.2282 12.4195 15.3779 15.9506 15.3552H15.9511ZM6.23482 16.9633C6.24885 16.9636 6.26264 16.9653 6.27691 16.9653C6.29119 16.9653 6.30473 16.9633 6.31901 16.9633C7.51349 16.9729 8.6036 17.3848 9.47162 18.0739C8.85049 19.1729 8.49129 20.4414 8.49129 21.7972V23.5635H1.10246V22.1955C1.10246 19.2954 3.38264 16.986 6.23469 16.9631L6.23482 16.9633ZM25.668 16.9633C25.6823 16.9636 25.6958 16.9653 25.7101 16.9653C25.7244 16.9653 25.7379 16.9633 25.7522 16.9633C28.6042 16.986 30.8844 19.2957 30.8844 22.1957V23.5635H23.4918L23.4916 21.7972C23.4916 20.4422 23.1334 19.1746 22.5134 18.0758C23.3817 17.3858 24.4726 16.9729 25.6681 16.9633H25.668Z" fill="#6173E5"/>
</svg>
