<svg width="40" height="40" viewBox="0 0 40 40" fill="none" xmlns="http://www.w3.org/2000/svg">
<rect width="40" height="40" fill="#F5F5F5"/>
<g clip-path="url(#clip0_0_1)">
<rect width="1400" height="2379" transform="translate(-96 -24)" fill="white"/>
<rect width="1400" height="88" transform="translate(-96 -24)" fill="white"/>
<path d="M31.6667 5H8.33333C6.5 5 5 6.5 5 8.33333V31.6667C5 33.5 6.5 35 8.33333 35H31.6667C33.5 35 35 33.5 35 31.6667V8.33333C35 6.5 33.5 5 31.6667 5ZM31.6667 23.3333H25.7333C25.1333 23.3333 24.6 23.65 24.3 24.1667C23.4333 25.6667 21.85 26.6667 20 26.6667C18.15 26.6667 16.5667 25.6667 15.7 24.1667C15.4 23.65 14.85 23.3333 14.2667 23.3333H8.33333V8.33333H31.6667V23.3333Z" fill="#6173E5"/>
</g>
<defs>
<clipPath id="clip0_0_1">
<rect width="1400" height="2379" fill="white" transform="translate(-96 -24)"/>
</clipPath>
</defs>
</svg>
