<svg width="138" height="22" viewBox="0 0 138 22" fill="none" xmlns="http://www.w3.org/2000/svg">
<path d="M125.219 20.0838C124.697 20.2428 124.277 20.1293 123.959 19.7432C123.641 19.3571 123.584 18.9143 123.789 18.4147C123.97 18.0287 125.321 16.7683 127.842 14.6337C128.41 14.1568 128.58 13.5436 128.353 12.7943C128.217 12.4082 127.978 11.8405 127.638 11.0911C127.297 10.319 126.99 9.6377 126.718 9.04727C126.445 8.45683 126.298 8.1162 126.275 8.02536C126.184 7.6166 126.252 7.25326 126.48 6.93533C126.707 6.6174 127.002 6.4698 127.365 6.49251C127.887 6.49251 128.308 6.76501 128.626 7.31003C128.694 7.44628 128.83 7.73015 129.034 8.16162C129.261 8.57038 129.5 9.05862 129.75 9.62635C130.022 10.1941 130.227 10.6142 130.363 10.8867C130.635 11.568 131.044 11.6588 131.589 11.1592L134.655 8.22974C135.064 7.8664 135.37 7.6166 135.574 7.48035C135.802 7.32138 136.051 7.2419 136.324 7.2419C136.619 7.2419 136.892 7.3668 137.141 7.6166C137.323 7.82098 137.437 8.05943 137.482 8.33193C137.527 8.58173 137.459 8.82018 137.278 9.04727L132.202 14.1227C131.748 14.5088 131.646 14.9743 131.896 15.5193C132.713 17.3815 133.122 18.5169 133.122 18.9257C133.122 19.448 132.906 19.8113 132.475 20.0157C131.952 20.2201 131.498 20.1406 131.112 19.7773C130.976 19.641 130.828 19.4253 130.669 19.1301C130.533 18.8348 130.385 18.5056 130.227 18.1422C130.068 17.7562 129.965 17.5291 129.92 17.4609C129.647 16.8932 129.261 16.8024 128.762 17.1884C128.421 17.5064 128.069 17.8243 127.706 18.1422C127.365 18.4374 127.104 18.6645 126.922 18.8235C126.763 18.9825 126.593 19.1528 126.411 19.3344C126.23 19.4934 126.093 19.6069 126.003 19.6751C125.912 19.7432 125.81 19.8113 125.696 19.8795C125.605 19.9476 125.526 19.993 125.458 20.0157C125.39 20.0384 125.31 20.0611 125.219 20.0838Z" fill="#0E290F"/>
<path d="M118.09 19.9475C117.295 20.5379 116.466 20.7196 115.603 20.4925C114.763 20.2427 114.161 19.6522 113.798 18.7212C113.457 17.9264 113.343 16.8818 113.457 15.5873C113.571 14.2702 113.798 12.9645 114.138 11.67C114.502 10.3529 114.933 9.11527 115.433 7.95712C115.728 7.36668 116.114 7.0374 116.591 6.96927C117.022 6.92386 117.374 7.0374 117.647 7.30991C117.942 7.55971 118.044 7.88899 117.953 8.29775C117.908 8.54755 117.613 9.54675 117.068 11.2953C116.523 13.0212 116.228 14.0091 116.182 14.2589C115.887 16.2573 115.966 17.37 116.421 17.5971C116.807 17.756 117.306 17.3473 117.919 16.3708C118.555 15.3716 119.168 14.1453 119.759 12.6919C120.372 11.2159 120.928 9.69436 121.428 8.12744C121.791 6.99199 122.404 6.56051 123.267 6.83302C124.062 7.17366 124.266 7.86628 123.88 8.9109L122.245 13.3051C120.906 16.6206 119.52 18.8347 118.09 19.9475Z" fill="#0E290F"/>
<path d="M105.32 20.2884C104.071 20.1975 103.447 19.5276 103.447 18.2786C103.447 17.5065 103.606 16.3711 103.924 14.8723C104.083 14.1683 104.4 13.0101 104.877 11.3978C105.354 9.76276 105.672 8.74086 105.831 8.3321C106.149 7.53728 106.501 6.99226 106.887 6.69705C107.273 6.37912 107.795 6.23152 108.454 6.25422C109.181 6.25422 109.76 6.26558 110.191 6.28829C110.623 6.311 111.111 6.36777 111.656 6.4586C112.201 6.52673 112.61 6.66298 112.882 6.86737C113.155 7.07175 113.302 7.34425 113.325 7.68489C113.439 8.38887 113.03 8.80898 112.099 8.94524C111.168 9.08149 110.225 9.03608 109.272 8.80899C108.613 8.74086 108.216 8.9793 108.079 9.52432C108.034 9.7287 107.954 10.0126 107.841 10.3759C107.75 10.7392 107.682 11.0004 107.636 11.1594C107.478 11.6363 107.659 11.9088 108.182 11.9769C108.318 11.9996 108.545 12.0223 108.863 12.045C109.181 12.045 109.385 12.0564 109.476 12.0791C109.589 12.1018 109.748 12.1359 109.953 12.1813C110.157 12.2267 110.293 12.2948 110.362 12.3857C110.452 12.4538 110.532 12.556 110.6 12.6922C110.691 12.8058 110.748 12.9647 110.77 13.1691C110.77 13.4189 110.725 13.6346 110.634 13.8163C110.566 13.998 110.464 14.1342 110.328 14.2251C110.191 14.3159 109.998 14.3954 109.748 14.4635C109.521 14.5089 109.306 14.543 109.101 14.5657C108.897 14.5657 108.624 14.5771 108.284 14.5998C107.943 14.5998 107.671 14.6111 107.466 14.6338C106.876 14.6566 106.512 14.9291 106.376 15.4514C106.308 15.6785 106.229 16.1213 106.138 16.7798C106.092 17.3476 106.376 17.6314 106.989 17.6314C107.398 17.6314 107.864 17.5974 108.386 17.5292C108.931 17.4611 109.328 17.427 109.578 17.427C109.828 17.4043 110.066 17.4725 110.293 17.6314C110.521 17.7677 110.668 18.0175 110.736 18.3808C110.85 18.9258 110.623 19.346 110.055 19.6412C109.805 19.7547 109.033 19.891 107.739 20.0499C106.444 20.2089 105.638 20.2884 105.32 20.2884Z" fill="#0E290F"/>
<path d="M98.2939 16.0292C98.7708 14.8257 99.3498 13.1452 100.031 10.9878L101.019 7.75181C101.36 7.02512 101.836 6.74126 102.45 6.90022C103.244 7.05918 103.494 7.81993 103.199 9.18247C103.085 9.72749 102.926 10.3179 102.722 10.9538C102.54 11.5896 102.37 12.1346 102.211 12.5888C102.075 13.0203 101.871 13.5994 101.598 14.3261C101.348 15.03 101.155 15.5751 101.019 15.9611C100.36 17.8914 99.9289 19.0041 99.7245 19.2993C99.3839 19.8671 98.9524 20.0601 98.4301 19.8784C97.5672 19.6513 97.3855 18.7657 97.8851 17.2215C97.9305 17.1079 98.0668 16.7105 98.2939 16.0292Z" fill="#0E290F"/>
<path d="M93.51 20.6622C92.9195 20.5033 92.6243 20.0718 92.6243 19.3678C92.6243 19.0272 92.6811 18.5957 92.7946 18.0734C92.9309 17.5511 93.1466 16.779 93.4418 15.7571C93.7371 14.7352 93.9755 13.8949 94.1572 13.2364C94.2253 12.9866 94.1458 12.8276 93.9187 12.7595C93.7143 12.6687 93.5327 12.7254 93.3737 12.9298C93.3056 13.0206 93.1239 13.2704 92.8287 13.6792C92.5562 14.088 92.295 14.4627 92.0452 14.8033C91.7954 15.1439 91.6251 15.3483 91.5343 15.4164C91.1028 15.8479 90.6486 16.0182 90.1717 15.9274C89.7176 15.8139 89.3883 15.4732 89.1839 14.9055C89.1158 14.7465 89.0249 14.3718 88.9114 13.7814C88.8206 13.1683 88.6956 12.6459 88.5367 12.2145C88.3777 11.783 88.1847 11.5673 87.9576 11.5673C87.6624 11.5673 87.2877 12.2031 86.8335 13.4748C86.402 14.7465 86.3407 15.1462 86.0682 16.4179C85.8184 17.576 85.2734 18.0643 84.4332 17.8826C84.138 17.7918 83.8995 17.6101 83.7179 17.3376C83.5589 17.0651 83.4908 16.7699 83.5135 16.4519C83.5362 16.1794 83.6157 15.7707 83.7519 15.2257C85.2053 10.2751 86.0046 8.16092 86.7313 7.13902C87.0493 6.73026 87.4239 6.51452 87.8554 6.49181C88.3096 6.4691 88.7184 6.65078 89.0817 7.03683C89.1953 7.15037 89.3088 7.29798 89.4223 7.47965C89.5359 7.63862 89.6494 7.843 89.763 8.0928C89.8992 8.3426 90.0014 8.55833 90.0695 8.74C90.1377 8.89897 90.2399 9.16012 90.3761 9.52346C90.5124 9.88681 90.6146 10.148 90.6827 10.3069C90.9779 11.0563 91.3867 11.1017 91.909 10.4432L93.3056 8.70594C94.2594 7.52507 95.0201 6.76432 95.5878 6.42369C96.1556 6.08305 96.6892 6.03763 97.1888 6.28743C97.6657 6.51452 97.9382 6.90057 98.0063 7.44559C98.0745 7.9679 97.9723 8.75136 97.6998 9.79597C96.1328 16.0182 95.2245 19.4132 94.9747 19.981C94.6568 20.5714 94.1685 20.7985 93.51 20.6622Z" fill="#0E290F"/>
<path d="M72.2267 19.9475C72.0904 19.9248 71.9655 19.9021 71.852 19.8794C71.7612 19.834 71.6817 19.7772 71.6136 19.7091C71.5454 19.641 71.4773 19.5728 71.4092 19.5047C71.3638 19.4366 71.3297 19.3457 71.307 19.2322C71.2843 19.0959 71.2616 18.9938 71.2389 18.9256C71.2389 18.8575 71.2389 18.744 71.2389 18.585C71.2616 18.4033 71.2729 18.2784 71.2729 18.2103C71.2729 18.1422 71.2843 18.0173 71.307 17.8356C71.3297 17.6312 71.3411 17.495 71.3411 17.4268C71.5681 15.4966 72.1813 12.6579 73.1805 8.91096C73.4984 7.75281 74.2592 7.03747 75.4627 6.76496C76.6663 6.46974 77.8358 6.59465 78.9713 7.13966C80.0386 7.50301 80.7539 8.11615 81.1173 8.97909C81.4806 9.81932 81.3784 10.6823 80.8107 11.5679C80.6745 11.795 80.5268 11.9994 80.3679 12.1811C80.2089 12.34 80.0613 12.4649 79.925 12.5558C79.8115 12.6466 79.6071 12.7828 79.3119 12.9645C79.0167 13.1462 78.7782 13.2938 78.5966 13.4073C78.0288 13.7707 78.0402 14.1681 78.6306 14.5996C79.6525 15.2581 80.7085 16.0302 81.7985 16.9159C82.7977 17.7107 83.2633 18.4033 83.1951 18.9938C83.1724 19.6069 82.9113 19.9702 82.4117 20.0838C81.9348 20.1746 81.4125 19.9816 80.8448 19.5047C80.277 18.9597 79.3119 18.1989 77.9494 17.2225C76.6095 16.246 75.6898 15.6328 75.1902 15.383C74.9404 15.2695 74.7133 15.2581 74.509 15.349C74.3046 15.4171 74.191 15.5761 74.1683 15.8259C74.1456 15.9167 74.1116 16.1665 74.0661 16.5752C74.0207 16.9613 73.9753 17.2338 73.9299 17.3928C73.9072 17.5517 73.8618 17.8129 73.7936 18.1762C73.7255 18.5169 73.646 18.7667 73.5552 18.9256C73.4643 19.0846 73.3508 19.2663 73.2145 19.4706C73.101 19.675 72.9534 19.8113 72.7717 19.8794C72.6128 19.9475 72.4311 19.9702 72.2267 19.9475ZM75.3946 11.3976C75.6217 11.7382 76.2235 11.6928 77.2 11.2613C78.1083 10.9207 78.5284 10.5233 78.4603 10.0691C78.3922 9.63765 77.9494 9.36514 77.1318 9.2516C76.337 9.13805 75.8601 9.26295 75.7012 9.6263C75.2924 10.4892 75.1902 11.0797 75.3946 11.3976Z" fill="#0E290F"/>
<path d="M66.0861 16.0292C66.563 14.8257 67.1421 13.1452 67.8233 10.9878L68.8112 7.75181C69.1518 7.02512 69.6287 6.74126 70.2418 6.90022C71.0367 7.05918 71.2865 7.81993 70.9912 9.18247C70.8777 9.72749 70.7187 10.3179 70.5143 10.9538C70.3327 11.5896 70.1624 12.1346 70.0034 12.5888C69.8671 13.0203 69.6628 13.5994 69.3903 14.3261C69.1405 15.03 68.9474 15.5751 68.8112 15.9611C68.1526 17.8914 67.7211 19.0041 67.5168 19.2993C67.1761 19.8671 66.7447 20.0601 66.2224 19.8784C65.3594 19.6513 65.1777 18.7657 65.6773 17.2215C65.7228 17.1079 65.859 16.7105 66.0861 16.0292Z" fill="#0E290F"/>
<path d="M54.2246 20.628C53.9748 20.5144 53.7818 20.3214 53.6455 20.0489C53.532 19.7537 53.5207 19.4585 53.6115 19.1632C53.7477 18.6864 54.8832 15.7115 57.0178 10.2386C57.086 9.9434 57.0178 9.72766 56.8135 9.59141C56.6318 9.43244 56.3366 9.35296 55.9278 9.35296C54.3382 9.39838 53.4866 9.42109 53.373 9.42109C52.5101 9.46651 51.897 9.43244 51.5336 9.3189C51.193 9.18265 50.9886 8.84201 50.9205 8.29699C50.8751 7.86552 51.034 7.52489 51.3974 7.27509C51.7834 7.02529 52.3171 6.90039 52.9983 6.90039H59.1638C59.8451 6.90039 60.7308 6.90039 61.8208 6.90039C64.4777 6.90039 65.9652 6.95716 66.2831 7.07071C66.3058 7.09342 66.3399 7.11613 66.3853 7.13884C66.8849 7.43405 67.0779 7.85417 66.9644 8.39918C66.8962 8.76253 66.7146 9.02368 66.4194 9.18265C66.1241 9.3189 65.6473 9.38703 64.9887 9.38703C63.3764 9.38703 62.1614 9.37567 61.3439 9.35296C60.5264 9.33025 59.97 9.70495 59.6748 10.4771C59.4023 11.2719 58.9481 12.4414 58.3123 13.9856C56.6999 18.0051 55.8597 20.0489 55.7915 20.117C55.4055 20.6848 54.8832 20.8551 54.2246 20.628Z" fill="#0E290F"/>
<path d="M47.3977 19.3011C46.7391 20.1413 45.8875 20.6636 44.8429 20.868C43.7983 21.0724 42.731 20.9475 41.641 20.4933C40.5736 20.0391 39.9378 19.4487 39.7334 18.722C39.5063 17.9272 39.7334 17.3595 40.4147 17.0188C41.0051 16.7236 41.5161 16.8599 41.9475 17.4276C42.4698 18.1543 43.1852 18.4836 44.0935 18.4154C45.0246 18.3246 45.5469 17.8364 45.6605 16.9507C45.7967 16.0651 45.4674 15.2362 44.6726 14.4641C44.5137 14.3278 44.1957 14.0667 43.7188 13.6806C43.242 13.2718 42.8218 12.9085 42.4585 12.5906C42.0951 12.2727 41.8567 12.0229 41.7432 11.8412C41.0846 10.8647 41.096 9.89956 41.7772 8.94578C42.3904 8.17367 43.2987 7.53782 44.5023 7.03823C45.7059 6.51592 46.9095 6.24341 48.113 6.2207C49.0214 6.2207 49.5323 6.56134 49.6459 7.24261C49.714 7.62866 49.6232 7.93523 49.3734 8.16232C49.1463 8.38941 48.7375 8.57108 48.1471 8.70734C46.8754 8.88901 45.933 9.12745 45.3198 9.42267C44.5931 9.78601 44.2071 10.0926 44.1617 10.3424C44.139 10.5922 44.4342 10.9555 45.0473 11.4324C46.9549 12.8631 48.0222 14.5776 48.2493 16.576C48.3401 17.5525 48.0563 18.4609 47.3977 19.3011Z" fill="#0E290F"/>
<path d="M32.1485 20.2884C30.8995 20.1975 30.275 19.5276 30.275 18.2786C30.275 17.5065 30.434 16.3711 30.7519 14.8723C30.9109 14.1683 31.2288 13.0101 31.7057 11.3978C32.1826 9.76276 32.5005 8.74086 32.6595 8.3321C32.9774 7.53728 33.3294 6.99226 33.7154 6.69705C34.1015 6.37912 34.6238 6.23152 35.2824 6.25422C36.009 6.25422 36.5881 6.26558 37.0196 6.28829C37.4511 6.311 37.9393 6.36777 38.4843 6.4586C39.0293 6.52673 39.4381 6.66298 39.7106 6.86737C39.9831 7.07175 40.1307 7.34425 40.1534 7.68489C40.267 8.38887 39.8582 8.80898 38.9272 8.94524C37.9961 9.08149 37.0537 9.03608 36.0999 8.80899C35.4413 8.74086 35.0439 8.9793 34.9077 9.52432C34.8622 9.7287 34.7828 10.0126 34.6692 10.3759C34.5784 10.7392 34.5103 11.0004 34.4648 11.1594C34.3059 11.6363 34.4875 11.9088 35.0099 11.9769C35.1461 11.9996 35.3732 12.0223 35.6911 12.045C36.009 12.045 36.2134 12.0564 36.3043 12.0791C36.4178 12.1018 36.5768 12.1359 36.7812 12.1813C36.9855 12.2267 37.1218 12.2948 37.1899 12.3857C37.2807 12.4538 37.3602 12.556 37.4284 12.6922C37.5192 12.8058 37.576 12.9647 37.5987 13.1691C37.5987 13.4189 37.5533 13.6346 37.4624 13.8163C37.3943 13.998 37.2921 14.1342 37.1559 14.2251C37.0196 14.3159 36.8266 14.3954 36.5768 14.4635C36.3497 14.5089 36.1339 14.543 35.9296 14.5657C35.7252 14.5657 35.4527 14.5771 35.112 14.5998C34.7714 14.5998 34.4989 14.6111 34.2945 14.6338C33.7041 14.6566 33.3407 14.9291 33.2045 15.4514C33.1364 15.6785 33.0569 16.1213 32.966 16.7798C32.9206 17.3476 33.2045 17.6314 33.8176 17.6314C34.2264 17.6314 34.6919 17.5974 35.2142 17.5292C35.7592 17.4611 36.1567 17.427 36.4065 17.427C36.6563 17.4043 36.8947 17.4725 37.1218 17.6314C37.3489 17.7677 37.4965 18.0175 37.5646 18.3808C37.6782 18.9258 37.4511 19.346 36.8833 19.6412C36.6335 19.7547 35.8614 19.891 34.567 20.0499C33.2726 20.2089 32.4664 20.2884 32.1485 20.2884Z" fill="#0E290F"/>
<path d="M24.1047 19.8448C23.6732 20.2763 23.2077 20.4352 22.7081 20.3217C22.2312 20.2081 21.9019 19.8561 21.7203 19.2657C21.4477 18.3573 21.4591 14.9737 21.7543 9.11478C21.7997 7.95663 21.8906 7.17317 22.0268 6.7644C22.2766 6.21939 22.6627 5.96959 23.185 6.01501C23.9798 6.08313 24.3772 6.66221 24.3772 7.75225C23.9684 11.9534 24.0139 14.0767 24.5135 14.1221C24.8087 14.1448 25.2174 13.7134 25.7397 12.8277C26.2848 11.9421 26.8411 10.9542 27.4089 9.86418C27.9993 8.77415 28.4081 8.10423 28.6351 7.85443C29.0893 7.35484 29.5776 7.24129 30.0999 7.5138C30.713 7.85443 30.906 8.35403 30.679 9.01259C30.3383 9.94366 29.271 11.8739 27.477 14.8034C25.7057 17.7328 24.5816 19.4133 24.1047 19.8448Z" fill="#0E290F"/>
<path d="M8.77067 20.1792C7.81689 20.1792 7.48761 19.4752 7.78283 18.0673C8.03263 16.841 8.78203 14.4338 10.031 10.8458C10.6669 8.93824 11.1324 7.80279 11.4276 7.43944C11.791 6.98526 12.1884 6.83766 12.6198 6.99662C13.1194 7.17829 13.3692 7.53028 13.3692 8.05259C13.3692 8.30239 13.1876 8.91553 12.8242 9.89202C12.5971 10.4824 12.4382 10.9253 12.3473 11.2205L12.8583 10.6414C14.6069 8.57489 16.3214 7.31455 18.0019 6.86037C18.774 6.65598 19.3871 6.73547 19.8413 7.09881C20.7042 7.78008 20.727 9.13127 19.9094 11.1524C18.3652 14.9448 17.4342 17.4882 17.1162 18.7826C16.98 19.3049 16.7983 19.6796 16.5712 19.9067C16.3668 20.1111 16.0489 20.1792 15.6174 20.1111C15.1633 20.0202 14.8907 19.8158 14.7999 19.4979C14.7091 19.1573 14.7545 18.7031 14.9362 18.1354C15.5947 15.8872 16.4122 13.6163 17.3887 11.3227C17.5931 10.8458 17.7861 10.3348 17.9678 9.78983C18.0814 9.42648 18.0473 9.25617 17.8656 9.27887C17.7067 9.30158 17.2979 9.57409 16.6393 10.0964C16.0716 10.5279 15.5493 11.0161 15.0724 11.5611C13.1194 13.7639 11.4844 16.1938 10.1673 18.8507C9.80393 19.5547 9.486 19.9635 9.2135 20.077C9.07724 20.1451 8.92963 20.1792 8.77067 20.1792Z" fill="#0E290F"/>
<path d="M6.64238 2.6374C6.438 2.86449 6.1882 2.97803 5.89298 2.97803C5.59777 2.97803 5.34797 2.87584 5.14359 2.67146C4.93921 2.46708 4.83702 2.21728 4.83702 1.92206C4.83702 1.62685 4.93921 1.37705 5.14359 1.17267C5.34797 0.945577 5.59777 0.832031 5.89298 0.832031C6.1882 0.832031 6.438 0.934222 6.64238 1.1386C6.86947 1.34298 6.98302 1.58143 6.98302 1.85394C6.98302 2.14915 6.86947 2.41031 6.64238 2.6374ZM2.75914 21.1679C1.98704 21.1679 1.33983 20.8954 0.817524 20.3504C0.272508 19.7827 0 19.1014 0 18.3066C0 16.8759 0.158963 15.6496 0.476889 14.6277C0.862942 13.356 1.66911 11.1533 2.8954 8.01943C3.1452 7.42899 3.45177 7.02023 3.81511 6.79314C4.17845 6.56605 4.5418 6.56605 4.90514 6.79314C5.47287 7.15649 5.59777 7.65608 5.27984 8.29194C4.87108 9.13217 4.40554 10.2222 3.88324 11.562C3.2928 13.1062 2.81592 14.6618 2.45257 16.2287C2.31632 16.751 2.24819 17.2961 2.24819 17.8638C2.2709 18.4315 2.3958 18.7494 2.62289 18.8176C2.98623 18.9084 3.56531 18.6132 4.36013 17.9319C5.72267 16.7056 6.89218 15.4907 7.86867 14.2871C8.7089 13.2879 9.25391 12.7088 9.50371 12.5499C9.88976 12.3001 10.2758 12.3341 10.6619 12.6521C11.0933 13.0154 11.1842 13.4696 10.9344 14.0146C10.6619 14.5596 9.91248 15.5134 8.68619 16.8759C7.48261 18.2158 6.51748 19.1695 5.79079 19.7373C5.35932 20.0779 5.00733 20.3391 4.73482 20.5207C4.48503 20.6797 4.17845 20.8273 3.81511 20.9636C3.47448 21.0998 3.12249 21.1679 2.75914 21.1679Z" fill="#0E290F"/>
</svg>
