<svg width="274" height="40" viewBox="0 0 274 40" fill="none" xmlns="http://www.w3.org/2000/svg">
<path d="M31.6667 5H8.33333C6.5 5 5 6.5 5 8.33333V31.6667C5 33.5 6.5 35 8.33333 35H31.6667C33.5 35 35 33.5 35 31.6667V8.33333C35 6.5 33.5 5 31.6667 5ZM31.6667 23.3333H25.7333C25.1333 23.3333 24.6 23.65 24.3 24.1667C23.4333 25.6667 21.85 26.6667 20 26.6667C18.15 26.6667 16.5667 25.6667 15.7 24.1667C15.4 23.65 14.85 23.3333 14.2667 23.3333H8.33333V8.33333H31.6667V23.3333Z" fill="#6173E5"/>
<path d="M46.9432 8.72727V32H42.0227V8.72727H46.9432ZM54.7815 21.9091V32H49.9406V14.5455H54.5542V17.625H54.7587C55.1451 16.6098 55.7928 15.8068 56.7019 15.2159C57.611 14.6174 58.7133 14.3182 60.0087 14.3182C61.2209 14.3182 62.2777 14.5833 63.1792 15.1136C64.0807 15.6439 64.7815 16.4015 65.2815 17.3864C65.7815 18.3636 66.0315 19.5303 66.0315 20.8864V32H61.1906V21.75C61.1981 20.6818 60.9254 19.8485 60.3724 19.25C59.8194 18.6439 59.058 18.3409 58.0883 18.3409C57.4368 18.3409 56.861 18.4811 56.361 18.7614C55.8686 19.0417 55.4822 19.4508 55.2019 19.9886C54.9292 20.5189 54.7891 21.1591 54.7815 21.9091ZM84.5345 14.5455L78.4323 32H72.9777L66.8755 14.5455H71.9891L75.6141 27.0341H75.7959L79.4095 14.5455H84.5345ZM93.4439 32.3409C91.6484 32.3409 90.103 31.9773 88.8075 31.25C87.5196 30.5152 86.5272 29.4773 85.8302 28.1364C85.1333 26.7879 84.7848 25.1932 84.7848 23.3523C84.7848 21.5568 85.1333 19.9811 85.8302 18.625C86.5272 17.2689 87.5083 16.2121 88.7734 15.4545C90.0461 14.697 91.5386 14.3182 93.2507 14.3182C94.4022 14.3182 95.4742 14.5038 96.4666 14.875C97.4666 15.2386 98.3378 15.7879 99.0802 16.5227C99.8302 17.2576 100.414 18.1818 100.83 19.2955C101.247 20.4015 101.455 21.697 101.455 23.1818V24.5114H86.7166V21.5114H96.8984C96.8984 20.8144 96.7469 20.197 96.4439 19.6591C96.1408 19.1212 95.7204 18.7008 95.1825 18.3977C94.6522 18.0871 94.0348 17.9318 93.3302 17.9318C92.5954 17.9318 91.9439 18.1023 91.3757 18.4432C90.8151 18.7765 90.3757 19.2273 90.0575 19.7955C89.7393 20.3561 89.5764 20.9811 89.5689 21.6705V24.5227C89.5689 25.3864 89.728 26.1326 90.0461 26.7614C90.3719 27.3902 90.8302 27.875 91.4211 28.2159C92.012 28.5568 92.7128 28.7273 93.5234 28.7273C94.0613 28.7273 94.5537 28.6515 95.0007 28.5C95.4477 28.3485 95.8302 28.1212 96.1484 27.8182C96.4666 27.5152 96.709 27.1439 96.8757 26.7045L101.353 27C101.126 28.0758 100.66 29.0152 99.9552 29.8182C99.2583 30.6136 98.3567 31.2348 97.2507 31.6818C96.1522 32.1212 94.8833 32.3409 93.4439 32.3409ZM118.177 19.5227L113.745 19.7955C113.669 19.4167 113.507 19.0758 113.257 18.7727C113.007 18.4621 112.677 18.2159 112.268 18.0341C111.866 17.8447 111.385 17.75 110.825 17.75C110.075 17.75 109.442 17.9091 108.927 18.2273C108.412 18.5379 108.154 18.9545 108.154 19.4773C108.154 19.8939 108.321 20.2462 108.654 20.5341C108.988 20.822 109.56 21.053 110.37 21.2273L113.529 21.8636C115.226 22.2121 116.491 22.7727 117.325 23.5455C118.158 24.3182 118.575 25.3333 118.575 26.5909C118.575 27.7348 118.238 28.7386 117.563 29.6023C116.897 30.4659 115.98 31.1402 114.813 31.625C113.654 32.1023 112.317 32.3409 110.802 32.3409C108.491 32.3409 106.651 31.8598 105.279 30.8977C103.916 29.928 103.116 28.6098 102.882 26.9432L107.643 26.6932C107.787 27.3977 108.135 27.9356 108.688 28.3068C109.241 28.6705 109.95 28.8523 110.813 28.8523C111.662 28.8523 112.344 28.6894 112.859 28.3636C113.382 28.0303 113.647 27.6023 113.654 27.0795C113.647 26.6402 113.461 26.2803 113.097 26C112.734 25.7121 112.173 25.4924 111.416 25.3409L108.393 24.7386C106.688 24.3977 105.419 23.8068 104.586 22.9659C103.76 22.125 103.347 21.053 103.347 19.75C103.347 18.6288 103.651 17.6629 104.257 16.8523C104.87 16.0417 105.73 15.4167 106.836 14.9773C107.95 14.5379 109.253 14.3182 110.745 14.3182C112.95 14.3182 114.685 14.7841 115.95 15.7159C117.223 16.6477 117.965 17.9167 118.177 19.5227ZM129.947 14.5455V18.1818H119.436V14.5455H129.947ZM121.822 10.3636H126.663V26.6364C126.663 27.0833 126.731 27.4318 126.868 27.6818C127.004 27.9242 127.193 28.0947 127.436 28.1932C127.686 28.2917 127.974 28.3409 128.299 28.3409C128.527 28.3409 128.754 28.322 128.981 28.2841C129.209 28.2386 129.383 28.2045 129.504 28.1818L130.265 31.7841C130.023 31.8598 129.682 31.947 129.243 32.0455C128.803 32.1515 128.269 32.2159 127.64 32.2386C126.474 32.2841 125.451 32.1288 124.572 31.7727C123.701 31.4167 123.023 30.8636 122.538 30.1136C122.053 29.3636 121.815 28.4167 121.822 27.2727V10.3636ZM132.141 32V14.5455H136.981V32H132.141ZM134.572 12.2955C133.853 12.2955 133.235 12.0568 132.72 11.5795C132.213 11.0947 131.959 10.5152 131.959 9.84091C131.959 9.17424 132.213 8.60227 132.72 8.125C133.235 7.64015 133.853 7.39773 134.572 7.39773C135.292 7.39773 135.906 7.64015 136.413 8.125C136.928 8.60227 137.186 9.17424 137.186 9.84091C137.186 10.5152 136.928 11.0947 136.413 11.5795C135.906 12.0568 135.292 12.2955 134.572 12.2955ZM139.899 32V14.5455H144.592V17.5909H144.774C145.092 16.5076 145.627 15.6894 146.377 15.1364C147.127 14.5758 147.99 14.2955 148.967 14.2955C149.21 14.2955 149.471 14.3106 149.752 14.3409C150.032 14.3712 150.278 14.4129 150.49 14.4659V18.7614C150.263 18.6932 149.949 18.6326 149.547 18.5795C149.146 18.5265 148.778 18.5 148.445 18.5C147.733 18.5 147.096 18.6553 146.536 18.9659C145.983 19.2689 145.543 19.6932 145.217 20.2386C144.899 20.7841 144.74 21.4129 144.74 22.125V32H139.899ZM152.124 8.72727H158.192L164.601 24.3636H164.874L171.283 8.72727H177.351V32H172.579V16.8523H172.385L166.363 31.8864H163.113L157.09 16.7955H156.897V32H152.124V8.72727ZM180.354 32V14.5455H185.195V32H180.354ZM182.786 12.2955C182.066 12.2955 181.449 12.0568 180.934 11.5795C180.426 11.0947 180.173 10.5152 180.173 9.84091C180.173 9.17424 180.426 8.60227 180.934 8.125C181.449 7.64015 182.066 7.39773 182.786 7.39773C183.506 7.39773 184.119 7.64015 184.627 8.125C185.142 8.60227 185.4 9.17424 185.4 9.84091C185.4 10.5152 185.142 11.0947 184.627 11.5795C184.119 12.0568 183.506 12.2955 182.786 12.2955ZM196.068 32.3409C194.272 32.3409 192.727 31.9773 191.431 31.25C190.143 30.5152 189.151 29.4773 188.454 28.1364C187.757 26.7879 187.409 25.1932 187.409 23.3523C187.409 21.5568 187.757 19.9811 188.454 18.625C189.151 17.2689 190.132 16.2121 191.397 15.4545C192.67 14.697 194.162 14.3182 195.874 14.3182C197.026 14.3182 198.098 14.5038 199.09 14.875C200.09 15.2386 200.962 15.7879 201.704 16.5227C202.454 17.2576 203.037 18.1818 203.454 19.2955C203.871 20.4015 204.079 21.697 204.079 23.1818V24.5114H189.34V21.5114H199.522C199.522 20.8144 199.371 20.197 199.068 19.6591C198.765 19.1212 198.344 18.7008 197.806 18.3977C197.276 18.0871 196.659 17.9318 195.954 17.9318C195.219 17.9318 194.568 18.1023 193.999 18.4432C193.439 18.7765 192.999 19.2273 192.681 19.7955C192.363 20.3561 192.2 20.9811 192.193 21.6705V24.5227C192.193 25.3864 192.352 26.1326 192.67 26.7614C192.996 27.3902 193.454 27.875 194.045 28.2159C194.636 28.5568 195.337 28.7273 196.147 28.7273C196.685 28.7273 197.177 28.6515 197.624 28.5C198.071 28.3485 198.454 28.1212 198.772 27.8182C199.09 27.5152 199.333 27.1439 199.499 26.7045L203.977 27C203.749 28.0758 203.284 29.0152 202.579 29.8182C201.882 30.6136 200.98 31.2348 199.874 31.6818C198.776 32.1212 197.507 32.3409 196.068 32.3409ZM217.471 24.5682V14.5455H222.312V32H217.664V28.8295H217.483C217.089 29.8523 216.433 30.6742 215.517 31.2955C214.608 31.9167 213.498 32.2273 212.187 32.2273C211.02 32.2273 209.994 31.9621 209.108 31.4318C208.221 30.9015 207.528 30.1477 207.028 29.1705C206.536 28.1932 206.286 27.0227 206.278 25.6591V14.5455H211.119V24.7955C211.127 25.8258 211.403 26.6402 211.949 27.2386C212.494 27.8371 213.225 28.1364 214.142 28.1364C214.725 28.1364 215.27 28.0038 215.778 27.7386C216.286 27.4659 216.695 27.0644 217.005 26.5341C217.324 26.0038 217.479 25.3485 217.471 24.5682ZM229.27 14.5455L232.474 20.6477L235.758 14.5455H240.724L235.667 23.2727L240.861 32H235.917L232.474 25.9659L229.088 32H224.088L229.27 23.2727L224.27 14.5455H229.27ZM245.469 32.2955C244.719 32.2955 244.075 32.0303 243.537 31.5C243.007 30.9621 242.742 30.3182 242.742 29.5682C242.742 28.8258 243.007 28.1894 243.537 27.6591C244.075 27.1288 244.719 26.8636 245.469 26.8636C246.196 26.8636 246.833 27.1288 247.378 27.6591C247.923 28.1894 248.196 28.8258 248.196 29.5682C248.196 30.0682 248.067 30.5265 247.81 30.9432C247.56 31.3523 247.23 31.6818 246.821 31.9318C246.412 32.1742 245.961 32.2955 245.469 32.2955ZM260.597 14.5455V18.1818H249.824V14.5455H260.597ZM252.29 32V13.2841C252.29 12.0189 252.536 10.9697 253.029 10.1364C253.529 9.30303 254.211 8.67803 255.074 8.26136C255.938 7.8447 256.919 7.63636 258.017 7.63636C258.76 7.63636 259.438 7.69318 260.051 7.80682C260.673 7.92045 261.135 8.02273 261.438 8.11364L260.574 11.75C260.385 11.6894 260.15 11.6326 259.87 11.5795C259.597 11.5265 259.317 11.5 259.029 11.5C258.317 11.5 257.82 11.6667 257.54 12C257.26 12.3258 257.12 12.7841 257.12 13.375V32H252.29ZM262.594 32V14.5455H267.288V17.5909H267.469C267.788 16.5076 268.322 15.6894 269.072 15.1364C269.822 14.5758 270.685 14.2955 271.663 14.2955C271.905 14.2955 272.166 14.3106 272.447 14.3409C272.727 14.3712 272.973 14.4129 273.185 14.4659V18.7614C272.958 18.6932 272.644 18.6326 272.242 18.5795C271.841 18.5265 271.473 18.5 271.14 18.5C270.428 18.5 269.791 18.6553 269.231 18.9659C268.678 19.2689 268.238 19.6932 267.913 20.2386C267.594 20.7841 267.435 21.4129 267.435 22.125V32H262.594Z" fill="white"/>
</svg>
